# xmcd
#
# Track frame offsets:
# 150
# 8942
# 23686
# 40384
# 54791
# 66677
# 77214
# 88592
# 100408
# 116968
# 132449
#
# Disc length: 1952 seconds
#
# Revision: 0
# Processed by: cddbd v1.5.1PL0 Copyright (c) Steve Scherf et al.
# Submitted via: Audion 3.0.2 (http://www.panic.com/audion/)
#
DISCID=96079e0b
DTITLE=Elvis Costello - This Year's Model
DYEAR=1900
DGENRE=
TTITLE0=jfl;asfjsl;
TTITLE1=sdfjsldfj
TTITLE2=sddjfl;sj
TTITLE3=sdfjlsdkj
TTITLE4=sljfl;sd
TTITLE5=dljfsl;kj
TTITLE6=dsljfsdlk
TTITLE7=;asdklfjlsdk
TTITLE8=sjflsdk
TTITLE9=sldjfkls
TTITLE10=sdlfjls
EXTD=
EXTT0=
EXTT1=
EXTT2=
EXTT3=
EXTT4=
EXTT5=
EXTT6=
EXTT7=
EXTT8=
EXTT9=
EXTT10=
PLAYORDER=
